<svg width="26" height="26" viewBox="0 0 26 26" fill="none" xmlns="http://www.w3.org/2000/svg">
<path d="M21.6734 11.1308L13.5484 3.7472C13.3987 3.61017 13.203 3.53418 13 3.53418C12.797 3.53418 12.6013 3.61017 12.4516 3.7472L4.32656 11.1308C4.2448 11.208 4.17932 11.3008 4.13397 11.4037C4.08862 11.5066 4.06432 11.6176 4.0625 11.73V21.1245C4.0625 21.34 4.1481 21.5467 4.30048 21.6991C4.45285 21.8514 4.65951 21.937 4.875 21.937H21.125C21.3405 21.937 21.5472 21.8514 21.6995 21.6991C21.8519 21.5467 21.9375 21.34 21.9375 21.1245V11.73C21.9357 11.6176 21.9114 11.5066 21.866 11.4037C21.8207 11.3008 21.7552 11.208 21.6734 11.1308Z" stroke="#090909" stroke-width="3" stroke-linecap="round" stroke-linejoin="round"/>
</svg>
