<svg width="26" height="26" viewBox="0 0 26 26" fill="none" xmlns="http://www.w3.org/2000/svg">
<path d="M13 23.5625V8.9375" stroke="#090909" stroke-width="3" stroke-linecap="round" stroke-linejoin="round"/>
<path d="M13.457 18.4031C14.2025 18.9109 15.0454 19.2579 15.9323 19.4222C16.8191 19.5864 17.7304 19.5643 18.6082 19.3573C19.4861 19.1502 20.3112 18.7628 21.0312 18.2195C21.7512 17.6763 22.3502 16.9892 22.7902 16.2018C23.2302 15.4145 23.5015 14.5442 23.5869 13.6464C23.6723 12.7485 23.5699 11.8427 23.2862 10.9865C23.0026 10.1304 22.5438 9.34263 21.9392 8.67339C21.3346 8.00415 20.5973 7.46807 19.7742 7.09923C19.5935 7.00838 19.4499 6.85761 19.368 6.67267C18.8414 5.41834 17.9562 4.34744 16.8233 3.59434C15.6904 2.84124 14.3604 2.43948 13 2.43948C11.6396 2.43948 10.3096 2.84124 9.17669 3.59434C8.0438 4.34744 7.15856 5.41834 6.63203 6.67267C6.55009 6.85761 6.40651 7.00838 6.22578 7.09923C5.40272 7.46807 4.66543 8.00415 4.06079 8.67339C3.45616 9.34263 2.99742 10.1304 2.71375 10.9865C2.43008 11.8427 2.32769 12.7485 2.4131 13.6464C2.4985 14.5442 2.76983 15.4145 3.20982 16.2018C3.64982 16.9892 4.24885 17.6763 4.96881 18.2195C5.68877 18.7628 6.51391 19.1502 7.39175 19.3573C8.26959 19.5643 9.18091 19.5864 10.0677 19.4222C10.9546 19.2579 11.7975 18.9109 12.543 18.4031C12.6787 18.314 12.8376 18.2665 13 18.2665C13.1624 18.2665 13.3213 18.314 13.457 18.4031Z" stroke="#090909" stroke-width="3" stroke-linecap="round" stroke-linejoin="round"/>
<path d="M13 15.4375L8.125 13" stroke="#090909" stroke-width="3" stroke-linecap="round" stroke-linejoin="round"/>
<path d="M13 13L17.875 10.5625" stroke="#090909" stroke-width="3" stroke-linecap="round" stroke-linejoin="round"/>
</svg>
