<svg width="26" height="26" viewBox="0 0 26 26" fill="none" xmlns="http://www.w3.org/2000/svg">
<path d="M13 8.9375C13 8.07555 13.3424 7.2489 13.9519 6.6394C14.5614 6.02991 15.388 5.6875 16.25 5.6875H22.75C22.9655 5.6875 23.1722 5.7731 23.3245 5.92548C23.4769 6.07785 23.5625 6.28451 23.5625 6.5V19.5C23.5625 19.7155 23.4769 19.9222 23.3245 20.0745C23.1722 20.2269 22.9655 20.3125 22.75 20.3125H16.25C15.388 20.3125 14.5614 20.6549 13.9519 21.2644C13.3424 21.8739 13 22.7005 13 23.5625" stroke="#090909" stroke-width="3" stroke-linecap="round" stroke-linejoin="round"/>
<path d="M2.4375 19.5C2.4375 19.7155 2.5231 19.9222 2.67548 20.0745C2.82785 20.2269 3.03451 20.3125 3.25 20.3125H9.75C10.612 20.3125 11.4386 20.6549 12.0481 21.2644C12.6576 21.8739 13 22.7005 13 23.5625V8.9375C13 8.07555 12.6576 7.2489 12.0481 6.6394C11.4386 6.02991 10.612 5.6875 9.75 5.6875H3.25C3.03451 5.6875 2.82785 5.7731 2.67548 5.92548C2.5231 6.07785 2.4375 6.28451 2.4375 6.5V19.5Z" stroke="#090909" stroke-width="3" stroke-linecap="round" stroke-linejoin="round"/>
</svg>
