<svg width="32" height="32" viewBox="0 0 32 32" fill="none" xmlns="http://www.w3.org/2000/svg">
<circle cx="16" cy="16" r="16" fill="#FF6700"/>
<path fill-rule="evenodd" clip-rule="evenodd" d="M10.4226 23.1575C10.4721 23.3837 10.6183 23.5657 10.8064 23.6776L10.8098 23.6795C11.1758 23.8873 11.722 23.8611 12.0436 23.3988L21.4038 9.5616C21.5728 9.31951 21.6136 9.06157 21.5554 8.83119C21.4982 8.60491 21.3487 8.41817 21.1602 8.30608L21.1535 8.30247C20.9763 8.20625 20.7609 8.16693 20.5437 8.21735C20.3245 8.26824 20.1184 8.40695 19.9551 8.64028L10.5948 22.4377C10.4259 22.6777 10.3726 22.9289 10.4226 23.1575Z" fill="#F9F9F9"/>
<path fill-rule="evenodd" clip-rule="evenodd" d="M11.4787 16.0099C12.3945 16.0099 13.1395 15.6298 13.6498 14.9465C14.1554 14.2696 14.4201 13.3103 14.4201 12.1604C14.4201 11.0102 14.1533 10.0565 13.6462 9.38538C13.1345 8.70812 12.3895 8.33482 11.4787 8.33482C10.5638 8.33482 9.81687 8.71016 9.30422 9.38833C8.79619 10.0604 8.5293 11.0141 8.5293 12.1604C8.5293 13.3142 8.79394 14.2737 9.30076 14.9498C9.8124 15.6323 10.5595 16.0099 11.4787 16.0099ZM11.4787 14.5082C11.0951 14.5082 10.7858 14.3206 10.5623 13.937C10.3334 13.5441 10.1983 12.9474 10.1983 12.1604C10.1983 11.3863 10.3351 10.7934 10.5651 10.4012C10.79 10.0174 11.0999 9.82858 11.4787 9.82858C11.8578 9.82858 12.1653 10.0157 12.3881 10.3978C12.6161 10.7889 12.7511 11.3817 12.7511 12.1604C12.7511 12.9478 12.6178 13.5447 12.3907 13.9376C12.1692 14.3209 11.862 14.5082 11.4787 14.5082Z" fill="#F9F9F9"/>
<path fill-rule="evenodd" clip-rule="evenodd" d="M20.5276 23.6729C21.4434 23.6729 22.1884 23.2928 22.6987 22.6106C23.2043 21.9347 23.4691 20.9774 23.4691 19.8313C23.4691 18.6773 23.2023 17.7216 22.6952 17.0494C22.1835 16.3711 21.4385 15.9978 20.5276 15.9978C19.6127 15.9978 18.8658 16.3731 18.3531 17.0524C17.8451 17.7255 17.5783 18.6811 17.5783 19.8313C17.5783 20.9812 17.843 21.9388 18.3498 22.6139C18.8614 23.2953 19.6085 23.6729 20.5276 23.6729ZM20.5276 22.1791C20.1447 22.1791 19.8352 21.9901 19.6114 21.6051C19.3823 21.211 19.2473 20.6142 19.2473 19.8313C19.2473 19.053 19.3841 18.4603 19.6139 18.0693C19.8386 17.6869 20.1483 17.4995 20.5276 17.4995C20.9074 17.4995 21.2147 17.6852 21.4371 18.0659C21.665 18.4558 21.8 19.0485 21.8 19.8313C21.8 20.6146 21.6668 21.2116 21.4396 21.6057C21.2177 21.9904 20.9103 22.1791 20.5276 22.1791Z" fill="#F9F9F9"/>
</svg>
