<svg width="32" height="32" viewBox="0 0 32 32" fill="none" xmlns="http://www.w3.org/2000/svg">
<circle cx="16" cy="16" r="16" fill="#56ABFF"/>
<path d="M14.4735 7.49634C14.4735 8.45553 15.2408 9.22288 16.2 9.22288C17.1712 9.22288 17.9146 8.45553 17.9146 7.49634C17.9146 6.52516 17.1712 5.75781 16.2 5.75781C15.2408 5.75781 14.4735 6.52516 14.4735 7.49634ZM11.5 23.3469C11.5 23.9344 11.9196 24.3301 12.5551 24.3301H20.1447C20.7802 24.3301 21.1998 23.9344 21.1998 23.3469C21.1998 22.7714 20.7802 22.3758 20.1447 22.3758H17.7347V13.2275C17.7347 12.58 17.3151 12.1484 16.6916 12.1484H12.8908C12.2674 12.1484 11.8357 12.5321 11.8357 13.1076C11.8357 13.7071 12.2674 14.1028 12.8908 14.1028H15.5166V22.3758H12.5551C11.9196 22.3758 11.5 22.7714 11.5 23.3469Z" fill="#F9F9F9"/>
</svg>
