<svg width="32" height="32" viewBox="0 0 32 32" fill="none" xmlns="http://www.w3.org/2000/svg">
<circle cx="16" cy="16" r="16" fill="#883FFF"/>
<path d="M12.4504 23.5962H20.1825C21.6897 23.5962 22.4396 22.8318 22.4396 21.3174V14.7065H17.1683C16.2364 14.7065 15.7923 14.2623 15.7923 13.3304V7.98633H12.4504C10.9506 7.98633 10.1934 8.75809 10.1934 10.2725V21.3174C10.1934 22.839 10.9433 23.5962 12.4504 23.5962ZM17.1902 13.709H22.3522C22.3085 13.4105 22.0974 13.1193 21.7479 12.7625L17.7362 8.678C17.394 8.32852 17.0955 8.11738 16.7897 8.06642V13.3158C16.7897 13.5779 16.9208 13.709 17.1902 13.709Z" fill="#F9F9F9"/>
</svg>
