<svg width="32" height="32" viewBox="0 0 32 32" fill="none" xmlns="http://www.w3.org/2000/svg">
<circle cx="16" cy="16" r="16" fill="#34D1BF"/>
<path d="M16.0049 15.4667C17.3137 15.4667 18.4399 14.2978 18.4399 12.7759C18.4399 11.2723 17.3076 10.1582 16.0049 10.1582C14.7082 10.1582 13.5698 11.2966 13.5759 12.7881C13.5759 14.2978 14.7021 15.4667 16.0049 15.4667ZM8.98573 15.6067C10.1241 15.6067 11.1043 14.584 11.1043 13.2629C11.1043 11.9541 10.118 10.9861 8.98573 10.9861C7.8595 10.9861 6.86112 11.9784 6.86721 13.2751C6.86721 14.584 7.85342 15.6067 8.98573 15.6067ZM23.0057 15.6067C24.1441 15.6067 25.1303 14.584 25.1303 13.2751C25.1303 11.9784 24.138 10.9861 23.0057 10.9861C21.8795 10.9861 20.8872 11.9541 20.8872 13.2629C20.8872 14.584 21.8734 15.6067 23.0057 15.6067ZM5.59487 21.1039H10.2154C9.58233 20.1847 10.3555 18.334 11.6704 17.3234C10.9886 16.873 10.118 16.5381 8.98573 16.5381C6.24017 16.5381 4.52344 18.5653 4.52344 20.2516C4.52344 20.7995 4.82174 21.1039 5.59487 21.1039ZM26.4027 21.1039C27.1758 21.1039 27.4741 20.7995 27.4741 20.2516C27.4741 18.5653 25.7574 16.5381 23.0118 16.5381C21.8734 16.5381 21.0029 16.873 20.3271 17.3234C21.636 18.334 22.4091 20.1847 21.776 21.1039H26.4027ZM12.1818 21.1039H19.8279C20.7837 21.1039 21.1246 20.83 21.1246 20.2942C21.1246 18.7236 19.1583 16.5564 16.0049 16.5564C12.8453 16.5564 10.879 18.7236 10.879 20.2942C10.879 20.83 11.2199 21.1039 12.1818 21.1039Z" fill="#F9F9F9"/>
</svg>
