<svg width="32" height="32" viewBox="0 0 32 32" fill="none" xmlns="http://www.w3.org/2000/svg">
<circle cx="16" cy="16" r="16" fill="#FFBF00"/>
<path d="M10.474 23.4564C10.7835 23.4564 11.034 23.2133 11.034 22.9038V18.8071C11.2182 18.726 11.9108 18.4608 12.994 18.4608C15.7202 18.4608 17.4296 19.7944 20.0232 19.7944C21.1727 19.7944 21.6 19.6692 22.16 19.4186C22.6684 19.1902 23 18.8071 23 18.1292V10.6505C23 10.2526 22.6611 10.0242 22.2337 10.0242C21.8727 10.0242 21.1948 10.3336 19.9275 10.3336C17.3338 10.3336 15.6318 8.99999 12.8982 8.99999C11.7487 8.99999 11.314 9.12525 10.754 9.37577C10.2456 9.60419 9.91406 9.98733 9.91406 10.6578V22.9038C9.91406 23.2059 10.1719 23.4564 10.474 23.4564Z" fill="#F9F9F9"/>
</svg>
