<svg width="32" height="32" viewBox="0 0 32 32" fill="none" xmlns="http://www.w3.org/2000/svg">
<circle cx="16" cy="16" r="16" fill="#5437FF"/>
<path d="M15.7056 19.5963C16.3263 19.5963 16.6101 19.1706 16.6101 18.6031V18.3017C16.6278 17.1312 17.0446 16.6435 18.4633 15.6681C19.9885 14.6395 20.955 13.4513 20.955 11.74C20.955 9.07983 18.7914 7.55469 16.0958 7.55469C14.0918 7.55469 12.3361 8.50347 11.5824 10.2148C11.3962 10.6316 11.3164 11.0395 11.3164 11.3764C11.3164 11.8818 11.609 12.2365 12.1499 12.2365C12.6021 12.2365 12.9036 11.9705 13.0366 11.536C13.4889 9.85127 14.6061 9.21284 16.0337 9.21284C17.7628 9.21284 19.1195 10.1882 19.1195 11.7311C19.1195 12.9991 18.3303 13.7085 17.1953 14.5065C15.8032 15.473 14.7835 16.5105 14.7835 18.0711V18.6297C14.7835 19.1972 15.0938 19.5963 15.7056 19.5963ZM15.7056 24.4466C16.415 24.4466 16.9736 23.8791 16.9736 23.1874C16.9736 22.4869 16.415 21.9283 15.7056 21.9283C15.014 21.9283 14.4465 22.4869 14.4465 23.1874C14.4465 23.8791 15.014 24.4466 15.7056 24.4466Z" fill="#F9F9F9"/>
</svg>
