<svg width="32" height="32" viewBox="0 0 32 32" fill="none" xmlns="http://www.w3.org/2000/svg">
<circle cx="16" cy="16" r="16" fill="#23CE6B"/>
<path d="M15.9955 24.6807C16.1271 24.6807 16.3329 24.6313 16.5386 24.5243C21.2212 22.0719 22.7273 20.8457 22.7273 17.8913V11.6862C22.7273 10.8386 22.3652 10.567 21.6739 10.279C20.711 9.88393 17.6331 8.76471 16.6785 8.43553C16.4563 8.36146 16.2259 8.32031 15.9955 8.32031C15.765 8.32031 15.5346 8.36969 15.3206 8.43553C14.3578 8.74825 11.2799 9.89216 10.3171 10.279C9.634 10.5588 9.26367 10.8386 9.26367 11.6862V17.8913C9.26367 20.8457 10.852 21.932 15.4523 24.5243C15.6663 24.6396 15.8638 24.6807 15.9955 24.6807Z" fill="#F9F9F9"/>
</svg>
