<svg width="9" height="16" viewBox="0 0 9 16" fill="none" xmlns="http://www.w3.org/2000/svg">
<path d="M8.69092 8.00684C8.69092 7.6665 8.56641 7.38428 8.30078 7.11865L1.90918 0.868164C1.69336 0.652344 1.43604 0.552734 1.12891 0.552734C0.506348 0.552734 0 1.04248 0 1.66504C0 1.97217 0.132812 2.25439 0.356934 2.47852L6.03467 7.99854L0.356934 13.5352C0.132812 13.7593 0 14.0332 0 14.3486C0 14.9712 0.506348 15.4692 1.12891 15.4692C1.43604 15.4692 1.69336 15.3613 1.90918 15.1455L8.30078 8.89502C8.57471 8.62939 8.69092 8.34717 8.69092 8.00684Z" fill="#090909" fill-opacity="0.3"/>
</svg>
